# xmcd
#
# Track frame offsets: 
#        150
#        17673
#        38848
#        54732
#        76241
#        89056
#        111359
#        128968
#        148412
#        165922
#        186659
#        213994
#
# Disc length: 3116 seconds
#
# Revision: 1
# Processed by: cddbd v1.5.2PL0 Copyright (c) Steve Scherf et al.
# Submitted via: ExactAudioCopy v1.0b3
#
DISCID=af0c2a0c
DTITLE=Roy Gaines - The First TB Album
DYEAR=2004
DGENRE=Blues
TTITLE0=Chicken Shack Boogie
TTITLE1=Every Saturday Night
TTITLE2=You're Still My Baby
TTITLE3=C C Rider
TTITLE4=Baby, Please Don't Go
TTITLE5=Dangerous
TTITLE6=Switcheroo
TTITLE7=Lizzie
TTITLE8=Boom Boom
TTITLE9=Open House At My House
TTITLE10=Running Around Balling
TTITLE11=Big Legs, Tight Skirt
EXTD=
EXTT0=
EXTT1=
EXTT2=
EXTT3=
EXTT4=
EXTT5=
EXTT6=
EXTT7=
EXTT8=
EXTT9=
EXTT10=
EXTT11=
PLAYORDER=
